<?xml version="1.0" encoding="UTF-8" standalone="no"?>
<!-- Created with Inkscape (http://www.inkscape.org/) -->

<svg
   xmlns:dc="http://purl.org/dc/elements/1.1/"
   xmlns:cc="http://creativecommons.org/ns#"
   xmlns:rdf="http://www.w3.org/1999/02/22-rdf-syntax-ns#"
   xmlns:svg="http://www.w3.org/2000/svg"
   xmlns="http://www.w3.org/2000/svg"
   xmlns:sodipodi="http://sodipodi.sourceforge.net/DTD/sodipodi-0.dtd"
   xmlns:inkscape="http://www.inkscape.org/namespaces/inkscape"
   width="256"
   height="256"
   id="svg3051"
   version="1.1"
   inkscape:version="0.48.0 r9654"
   sodipodi:docname="Nuevo documento 2">
  <defs
     id="defs3053" />
  <sodipodi:namedview
     id="base"
     pagecolor="#ffffff"
     bordercolor="#666666"
     borderopacity="1.0"
     inkscape:pageopacity="0"
     inkscape:pageshadow="2"
     inkscape:zoom="1.375"
     inkscape:cx="32"
     inkscape:cy="146.49285"
     inkscape:current-layer="layer1"
     showgrid="true"
     inkscape:document-units="px"
     inkscape:grid-bbox="true"
     inkscape:window-width="1366"
     inkscape:window-height="691"
     inkscape:window-x="0"
     inkscape:window-y="24"
     inkscape:window-maximized="1" />
  <metadata
     id="metadata3056">
    <rdf:RDF>
      <cc:Work
         rdf:about="">
        <dc:format>image/svg+xml</dc:format>
        <dc:type
           rdf:resource="http://purl.org/dc/dcmitype/StillImage" />
        <dc:title></dc:title>
      </cc:Work>
    </rdf:RDF>
  </metadata>
  <g
     id="layer1"
     inkscape:label="Layer 1"
     inkscape:groupmode="layer"
     transform="translate(0,192)">
    <path
       clip-rule="evenodd"
       d="m 193.25411,26.568169 c 0,-3.37167 -0.85183,-6.421311 -2.55587,-9.148565 -0.88308,-1.423785 -1.99879,-2.759743 -3.34674,-4.007518 -3.90923,-3.6415756 -8.6483,-5.4623632 -14.21644,-5.4623632 -5.56813,0 -10.31337,1.8207876 -14.23572,5.4623632 -3.92235,3.641575 -5.88333,8.026817 -5.88333,13.156083 0,1.97609 0.28935,3.841505 0.86804,5.596601 0.92512,2.814009 2.59715,5.339549 5.01529,7.57769 3.92235,3.629793 8.66759,5.444512 14.23572,5.444512 5.56852,0 10.30721,-1.814719 14.21644,-5.444512 3.93507,-3.630151 5.90261,-8.021462 5.90261,-13.174291 z m -91.1337,5.551617 c 0.57213,-1.740102 0.85839,-3.590879 0.85839,-5.551974 0,-5.128909 -1.96754,-9.514151 -5.902618,-13.156083 -3.909229,-3.6415756 -8.648298,-5.4623632 -14.216433,-5.4623632 -5.568135,0 -10.313376,1.8207876 -14.235722,5.4623632 -1.310535,1.216714 -2.403484,2.516971 -3.279232,3.900412 -1.736063,2.755102 -2.604095,5.840087 -2.604095,9.255671 0,5.153186 1.96098,9.54414 5.883327,13.173934 3.922346,3.629793 8.667587,5.444512 14.235722,5.444512 5.568521,0 10.307204,-1.814719 14.216433,-5.444512 2.437434,-2.248138 4.119098,-4.788672 5.044228,-7.62196 z M 208.02994,4.0582356 c -1.49185,1.3805854 -3.003,2.7193998 -4.53305,4.0164432 -1.22528,1.0271385 -2.4629,2.0239302 -3.71325,2.9900192 3.16967,4.559466 4.75489,9.72729 4.75489,15.503471 0,8.021105 -3.06705,14.864053 -9.20114,20.528488 -6.10824,5.676573 -13.50928,8.515216 -22.20233,8.515216 -8.6672,0 -16.06823,-2.838286 -22.20232,-8.515216 -4.15267,-3.850788 -6.89526,-8.245312 -8.22702,-13.18286 -4.75295,0.517675 -9.62358,0.776513 -14.61187,0.776513 -5.04191,0 -9.96384,-0.267763 -14.76618,-0.803289 -1.33484,4.9504 -4.09017,9.353493 -8.26559,13.209636 -6.108248,5.676573 -13.509281,8.515216 -22.202331,8.515216 -8.667587,0 -16.068234,-2.838286 -22.202326,-8.515216 -6.108244,-5.664435 -9.162558,-12.507383 -9.162558,-20.528488 0,-5.821165 1.604123,-11.024691 4.812754,-15.610576 C 53.531846,8.805493 50.821658,6.5055883 48.177054,4.0582356 26.265615,-16.219269 15.225407,-40.656738 15.056816,-69.255242 c 0,-0.219923 0,-0.440203 0,-0.660482 0,-26.931234 9.599661,-50.178766 28.799368,-69.743306 1.388851,-1.42807 2.829013,-2.83222 4.32087,-4.2128 22.067299,-20.43317 48.699674,-30.64993 79.897506,-30.64993 v 105.266518 h 113.05633 c -0.16705,28.597076 -11.20069,53.034902 -33.10095,73.3134776 z"
       id="path13"
       inkscape:connector-curvature="0"
       style="fill:#a9b22d;fill-rule:evenodd" />
  </g>
</svg>
